<svg xmlns="http://www.w3.org/2000/svg" viewBox="0 0 200 200">
  <!-- Lupa -->
  <circle cx="80" cy="80" r="60" fill="none" stroke="#333333" stroke-width="8"/>
  <line x1="120" y1="120" x2="180" y2="180" stroke="#333333" stroke-width="12"/>
  
  <!-- Planta más elaborada -->
  <g transform="translate(20, 20) scale(0.8)">
    <!-- Tallo -->
    <path d="M80 120 C80 90, 80 60, 80 30" fill="none" stroke="#45a049" stroke-width="4"/>
    
    <!-- Hojas -->
    <path d="M80 90 C60 70, 30 80, 20 60 C40 50, 70 70, 80 90" fill="#4CAF50" stroke="#45a049" stroke-width="2"/>
    <path d="M80 90 C100 70, 130 80, 140 60 C120 50, 90 70, 80 90" fill="#4CAF50" stroke="#45a049" stroke-width="2"/>
    <path d="M80 60 C60 40, 30 50, 20 30 C40 20, 70 40, 80 60" fill="#4CAF50" stroke="#45a049" stroke-width="2"/>
    <path d="M80 60 C100 40, 130 50, 140 30 C120 20, 90 40, 80 60" fill="#4CAF50" stroke="#45a049" stroke-width="2"/>
    
    <!-- Flor simple -->
    <circle cx="80" cy="25" r="10" fill="#FF69B4"/>
    <circle cx="80" cy="25" r="5" fill="#FFD700"/>
  </g>
  
  <!-- Texto (opcional) -->
  <text x="100" y="190" font-family="Arial, sans-serif" font-size="14" text-anchor="middle" fill="#333333">Plant Analyzer</text>
</svg>